<svg xmlns="http://www.w3.org/2000/svg" width="512" height="512" viewBox="0 0 256 256"><g stroke="#223347" stroke-width="7" stroke-linecap="round" stroke-linejoin="round"><path d="M35 175 C45 143 42 114 70 97 C81 65 103 63 129 69 C156 52 183 76 186 98 C215 115 211 146 222 180 C234 215 195 226 169 211 C145 229 111 219 95 214 C46 227 16 204 35 175Z" fill="#b3bd86" stroke="#223347" stroke-width="7"/><ellipse cx="74" cy="108" rx="13" ry="8" fill="#ffffff" stroke="none"/><path d="M53 188 Q78 205 94 191 M168 189 Q190 202 204 184" fill="none" stroke="#ffffff" stroke-width="5"/><path d="M87 137 L104 132 M151 132 L169 137" fill="none" stroke="#223347" stroke-width="9"/><ellipse cx="91" cy="131" rx="3" ry="4" fill="#ffffff" stroke="none"/><ellipse cx="155" cy="131" rx="3" ry="4" fill="#ffffff" stroke="none"/><path d="M112 163 Q128 178 144 163" fill="none" stroke="#223347" stroke-width="6"/><ellipse cx="74" cy="155" rx="12" ry="6" fill="#f99ba5" stroke="none"/><ellipse cx="182" cy="155" rx="12" ry="6" fill="#f99ba5" stroke="none"/><path d="M53 87 L76 49 H180 L202 87 L167 105 H89Z" fill="#c9b774" stroke="#223347" stroke-width="7"/><path d="M199 192 L226 79 M204 69 H246 L243 94 H202Z" fill="#a5c2bf" stroke="#223347" stroke-width="7"/><rect x="96" y="186" width="65" height="24" rx="10" fill="#788985"/></g></svg>
