<svg xmlns="http://www.w3.org/2000/svg" width="256" height="256" viewBox="0 0 256 256"><g stroke="#223347" stroke-width="7" stroke-linecap="round" stroke-linejoin="round"><path d="M35 175 C45 143 42 114 70 97 C81 65 103 63 129 69 C156 52 183 76 186 98 C215 115 211 146 222 180 C234 215 195 226 169 211 C145 229 111 219 95 214 C46 227 16 204 35 175Z" fill="#aa8be0" stroke="#223347" stroke-width="7"/><ellipse cx="74" cy="108" rx="13" ry="8" fill="#ffffff" stroke="none"/><path d="M53 188 Q78 205 94 191 M168 189 Q190 202 204 184" fill="none" stroke="#ffffff" stroke-width="5"/><ellipse cx="96" cy="137" rx="11" ry="14" fill="#223347" stroke="none"/><ellipse cx="160" cy="137" rx="11" ry="14" fill="#223347" stroke="none"/><ellipse cx="91" cy="131" rx="3" ry="4" fill="#ffffff" stroke="none"/><ellipse cx="155" cy="131" rx="3" ry="4" fill="#ffffff" stroke="none"/><path d="M112 163 Q128 178 144 163" fill="none" stroke="#223347" stroke-width="6"/><ellipse cx="74" cy="155" rx="12" ry="6" fill="#f99ba5" stroke="none"/><ellipse cx="182" cy="155" rx="12" ry="6" fill="#f99ba5" stroke="none"/><ellipse cx="128" cy="143" rx="116" ry="34" fill="none" stroke="#dbabff" stroke-width="12" transform="rotate(-27 128 143)"/><path d="M128 39 L140 67 L171 68 L148 89 L154 119 L128 103 L102 119 L108 89 L85 68 L116 67Z" fill="#d9b5ff" stroke="#223347" stroke-width="5"/></g></svg>
