<svg xmlns="http://www.w3.org/2000/svg" width="256" height="256" viewBox="0 0 256 256"><g stroke="#223347" stroke-width="7" stroke-linecap="round" stroke-linejoin="round"><path d="M39 177 C43 143 48 102 82 86 C101 51 147 53 170 81 C203 96 212 133 217 168 C233 212 193 222 168 209 C145 229 116 221 102 211 C55 227 22 208 39 177Z" fill="#8bb998" stroke="#223347" stroke-width="7"/><ellipse cx="74" cy="108" rx="13" ry="8" fill="#ffffff" stroke="none"/><path d="M53 188 Q78 205 94 191 M168 189 Q190 202 204 184" fill="none" stroke="#ffffff" stroke-width="5"/><ellipse cx="96" cy="137" rx="11" ry="14" fill="#223347" stroke="none"/><ellipse cx="160" cy="137" rx="11" ry="14" fill="#223347" stroke="none"/><ellipse cx="91" cy="131" rx="3" ry="4" fill="#ffffff" stroke="none"/><ellipse cx="155" cy="131" rx="3" ry="4" fill="#ffffff" stroke="none"/><path d="M112 163 Q128 178 144 163" fill="none" stroke="#223347" stroke-width="6"/><ellipse cx="74" cy="155" rx="12" ry="6" fill="#f99ba5" stroke="none"/><ellipse cx="182" cy="155" rx="12" ry="6" fill="#f99ba5" stroke="none"/><path d="M96 90 L93 43 Q102 21 114 42 L117 84 M146 83 L149 44 Q160 21 169 43 L164 94" fill="#8ac797" stroke="#223347" stroke-width="7"/><path d="M57 117 L46 110 M194 117 L209 108 M126 78 V66" fill="none" stroke="#e0efbc" stroke-width="4"/></g></svg>
