<svg xmlns="http://www.w3.org/2000/svg" width="256" height="256" viewBox="0 0 256 256"><g stroke="#223347" stroke-width="7" stroke-linecap="round" stroke-linejoin="round"><path d="M41 172 C47 125 37 87 86 81 C105 49 151 50 173 84 C215 87 215 138 215 174 C236 212 201 225 172 211 C143 230 113 220 100 211 C58 232 19 212 41 172Z" fill="#b8cf82" stroke="#223347" stroke-width="7"/><ellipse cx="74" cy="108" rx="13" ry="8" fill="#ffffff" stroke="none"/><path d="M53 188 Q78 205 94 191 M168 189 Q190 202 204 184" fill="none" stroke="#ffffff" stroke-width="5"/><path d="M87 137 L104 132 M151 132 L169 137" fill="none" stroke="#223347" stroke-width="9"/><ellipse cx="91" cy="131" rx="3" ry="4" fill="#ffffff" stroke="none"/><ellipse cx="155" cy="131" rx="3" ry="4" fill="#ffffff" stroke="none"/><path d="M112 163 Q128 178 144 163" fill="none" stroke="#223347" stroke-width="6"/><ellipse cx="74" cy="155" rx="12" ry="6" fill="#f99ba5" stroke="none"/><ellipse cx="182" cy="155" rx="12" ry="6" fill="#f99ba5" stroke="none"/><path d="M89 89 L52 46 L74 40 L129 77 L179 40 L204 47 L166 91Z" fill="#abd578" stroke="#223347" stroke-width="7"/><ellipse cx="128" cy="96" rx="22" ry="22" fill="#f4df75" stroke="#223347"/><path d="M126 78 L118 93 L125 93 L120 111 L138 88 L130 88 L135 78Z" fill="#596b54" stroke="#223347" stroke-width="2"/></g></svg>
