<svg xmlns="http://www.w3.org/2000/svg" width="160" height="160" viewBox="0 0 160 160"><g stroke="#29233e" stroke-width="6" stroke-linejoin="round" stroke-linecap="round"><ellipse cx="80" cy="144" rx="63" ry="11" fill="#29233e" stroke="none" opacity=".24"/><path d="M20 125l6-61 38-16 40 18 28 16 9 52-34 10-62 1z" fill="#616980" /><path d="M35 70l28-12 29 18-23 15z" fill="#a0b2b9" /><rect x="38" y="88" width="36" height="30" rx="5" fill="#96b592" /><path d="M47 98l5-6 8 9m7 3-2 8-10-1" fill="#f1e4af" /><path d="M88 76l33 15-9 34-33-11z" fill="#ac7e8c" /><path d="M99 87l10 5-8 20" fill="none" stroke="#eeb19b" stroke-width="4"/><path d="M27 130l24-8 30 9 44-1-14 13-65 2z" fill="#46566b" /></g></svg>
