<svg xmlns="http://www.w3.org/2000/svg" width="160" height="160" viewBox="0 0 160 160"><g stroke="#29233e" stroke-width="6" stroke-linejoin="round" stroke-linecap="round"><ellipse cx="80" cy="144" rx="63" ry="11" fill="#29233e" stroke="none" opacity=".24"/><path d="M65 140V99H46c-19 0-22-15-22-29V51c0-16 22-18 22-1v23h19V33c0-28 30-27 30 0v47h20V60c0-21 23-22 23 0v33c0 12-9 17-23 17H95v30z" fill="#71a78c" /><path d="M80 28v97m-47-71v23m91-15v26" fill="none" stroke="#a6c89a" stroke-width="4"/><path d="M68 21l8-14 9 9 7-1-3 15z" fill="#e59688" /><path d="M109 55l8-18 12 6 6 17z" fill="#f1c185" /><path d="M50 142l15-10 39 3 16 11z" fill="#dcb882" /></g></svg>
