<svg xmlns="http://www.w3.org/2000/svg" width="160" height="160" viewBox="0 0 160 160"><g stroke="#29233e" stroke-width="6" stroke-linejoin="round" stroke-linecap="round"><ellipse cx="80" cy="144" rx="63" ry="11" fill="#29233e" stroke="none" opacity=".24"/><path d="M63 136l6-53h26l7 53-18 8z" fill="#956445" /><path d="M80 104l-1 25" fill="none" stroke="#b88354" stroke-width="4"/><path d="M37 98C10 91 15 61 32 51 22 27 52 15 70 23 83 1 112 16 114 34 146 32 154 67 135 78 145 100 120 116 101 109 84 124 56 118 53 103z" fill="#75c864" /><path d="M39 46c13-17 28-7 34-4 18-22 41-13 45 4-16-6-26 0-35 8-17-11-32-7-44-8z" fill="#aee882" stroke="none"/><ellipse cx="45" cy="74" rx="10" ry="11" fill="#f49465" /><ellipse cx="111" cy="84" rx="9" ry="10" fill="#efaa61" /><ellipse cx="73" cy="87" rx="3" ry="5" fill="#29233e" stroke="none"/><ellipse cx="88" cy="87" rx="3" ry="5" fill="#29233e" stroke="none"/></g></svg>
