<svg xmlns="http://www.w3.org/2000/svg" width="160" height="160" viewBox="0 0 160 160"><g stroke="#29233e" stroke-width="6" stroke-linejoin="round" stroke-linecap="round"><ellipse cx="80" cy="144" rx="63" ry="11" fill="#29233e" stroke="none" opacity=".24"/><rect x="28" y="65" width="94" height="67" rx="5" fill="#9b916c" /><ellipse cx="41" cy="140" rx="9" ry="8" fill="#5e615c" /><ellipse cx="111" cy="140" rx="9" ry="8" fill="#5e615c" /><rect x="39" y="76" width="73" height="19" rx="3" fill="#d0bc7f" /><rect x="39" y="105" width="73" height="18" rx="3" fill="#c6b77e" /><path d="M66 85h17m-17 28h17" fill="none" stroke="#706b59" stroke-width="4"/><path d="M39 64l3-28 31-4 9 12 35 2-3 19z" fill="#d9c895" /><path d="M49 51h23v13H49z" fill="#eee4ad" stroke-width="3"/><path d="M58 40h10" fill="none" stroke="#958768" stroke-width="3"/><path d="M126 131l10-37 8 39z" fill="#736f5d" /></g></svg>
