<svg xmlns="http://www.w3.org/2000/svg" width="160" height="160" viewBox="0 0 160 160"><g stroke="#29233e" stroke-width="6" stroke-linejoin="round" stroke-linecap="round"><ellipse cx="80" cy="144" rx="63" ry="11" fill="#29233e" stroke="none" opacity=".24"/><path d="M15 135l4-26 12-7 3-27 30-18 28 7 9 18 22 3 13 24 8 30-47 9-47-1z" fill="#bf956e" /><path d="M28 114l26-12 39 2 34 17-14 7-43-6-33 9z" fill="#e7bd80" stroke="none"/><path d="M43 82l20-15 22 5 7 17-24-4-20 8z" fill="#f1d499" stroke="none"/><path d="M36 105l27-9 30 2m-54 42 19-10 22 3" fill="none" stroke="#926f65" stroke-width="4"/><path d="M101 89l5-23 15 1-2 25z" fill="#d7ac77" /></g></svg>
