<svg xmlns="http://www.w3.org/2000/svg" width="160" height="160" viewBox="0 0 160 160"><g stroke="#29233e" stroke-width="6" stroke-linejoin="round" stroke-linecap="round"><ellipse cx="80" cy="144" rx="63" ry="11" fill="#29233e" stroke="none" opacity=".24"/><rect x="25" y="79" width="112" height="52" rx="8" fill="#cc7468" /><ellipse cx="42" cy="139" rx="11" ry="10" fill="#675773" /><ellipse cx="121" cy="139" rx="11" ry="10" fill="#675773" /><path d="M20 80V61h123v19z" fill="#f3d690" /><path d="M20 61l16-22h92l15 22z" fill="#6d9e91" /><path d="M47 47h13m14 0h13m14 0h13" fill="none" stroke="#a4d0ac" stroke-width="4"/><rect x="51" y="83" width="51" height="35" rx="8" fill="#706a7f" /><ellipse cx="76" cy="97" rx="10" ry="9" fill="#e7b987" /><path d="M109 93h14v16h-14z" fill="#f9e5b3" /><path d="M113 83c-9-12 10-11 0-21" fill="none" stroke="#fff3d4" stroke-width="3"/><path d="M35 125h90" fill="none" stroke="#f4aa83" stroke-width="4"/></g></svg>
